<svg xmlns="http://www.w3.org/2000/svg" width="980" height="520" viewBox="0 0 980 520">
  <rect width="100%" height="100%" fill="#ffffff"/>
  <text x="28.0" y="38.0" font-size="22" font-weight="700" text-anchor="start" fill="#1f2937">월별 총 발주금액 추이</text>
  <rect x="76" y="78" width="744" height="366" fill="#f8fafc"/>
  <line x1="76" y1="444" x2="820" y2="444" stroke="#9ca3af"/>
  <line x1="76" y1="78" x2="76" y2="444" stroke="#9ca3af"/>
  <line x1="76" y1="444.0" x2="820" y2="444.0" stroke="#e5e7eb"/>
  <text x="66.0" y="448.0" font-size="11" font-weight="400" text-anchor="end" fill="#1f2937">0</text>
  <line x1="76" y1="352.5" x2="820" y2="352.5" stroke="#e5e7eb"/>
  <text x="66.0" y="356.5" font-size="11" font-weight="400" text-anchor="end" fill="#1f2937">7375만</text>
  <line x1="76" y1="261.0" x2="820" y2="261.0" stroke="#e5e7eb"/>
  <text x="66.0" y="265.0" font-size="11" font-weight="400" text-anchor="end" fill="#1f2937">1.5억</text>
  <line x1="76" y1="169.5" x2="820" y2="169.5" stroke="#e5e7eb"/>
  <text x="66.0" y="173.5" font-size="11" font-weight="400" text-anchor="end" fill="#1f2937">2.2억</text>
  <line x1="76" y1="78.0" x2="820" y2="78.0" stroke="#e5e7eb"/>
  <text x="66.0" y="82.0" font-size="11" font-weight="400" text-anchor="end" fill="#1f2937">2.9억</text>
  <text x="76.0" y="486.0" font-size="11" font-weight="400" text-anchor="middle" fill="#1f2937">2022-01</text>
  <text x="153.0" y="486.0" font-size="11" font-weight="400" text-anchor="middle" fill="#1f2937">2022-06</text>
  <text x="229.9" y="486.0" font-size="11" font-weight="400" text-anchor="middle" fill="#1f2937">2023-01</text>
  <text x="306.9" y="486.0" font-size="11" font-weight="400" text-anchor="middle" fill="#1f2937">2023-04</text>
  <text x="383.9" y="486.0" font-size="11" font-weight="400" text-anchor="middle" fill="#1f2937">2023-07</text>
  <text x="460.8" y="486.0" font-size="11" font-weight="400" text-anchor="middle" fill="#1f2937">2023-10</text>
  <text x="537.8" y="486.0" font-size="11" font-weight="400" text-anchor="middle" fill="#1f2937">2024-01</text>
  <text x="614.8" y="486.0" font-size="11" font-weight="400" text-anchor="middle" fill="#1f2937">2024-04</text>
  <text x="691.7" y="486.0" font-size="11" font-weight="400" text-anchor="middle" fill="#1f2937">2024-07</text>
  <text x="768.7" y="486.0" font-size="11" font-weight="400" text-anchor="middle" fill="#1f2937">2024-10</text>
  <polyline points="76.0,208.8 101.7,212.0 127.3,199.6 153.0,201.4 178.6,192.2 204.3,216.6 229.9,190.1 255.6,369.4 281.2,184.5 306.9,364.2 332.6,181.9 358.2,360.0 383.9,101.9 409.5,172.4 435.2,356.3 460.8,170.4 486.5,362.0 512.1,186.2 537.8,160.6 563.4,351.6 589.1,155.6 614.8,353.0 640.4,347.7 666.1,78.0 691.7,352.2 717.4,347.9 743.0,143.4 768.7,351.0 794.3,350.7 820.0,160.9" fill="none" stroke="#2563eb" stroke-width="3"/>
  <circle cx="76.0" cy="208.8" r="3.2" fill="#2563eb"/>
  <circle cx="101.7" cy="212.0" r="3.2" fill="#2563eb"/>
  <circle cx="127.3" cy="199.6" r="3.2" fill="#2563eb"/>
  <circle cx="153.0" cy="201.4" r="3.2" fill="#2563eb"/>
  <circle cx="178.6" cy="192.2" r="3.2" fill="#2563eb"/>
  <circle cx="204.3" cy="216.6" r="3.2" fill="#2563eb"/>
  <circle cx="229.9" cy="190.1" r="3.2" fill="#2563eb"/>
  <circle cx="255.6" cy="369.4" r="3.2" fill="#2563eb"/>
  <circle cx="281.2" cy="184.5" r="3.2" fill="#2563eb"/>
  <circle cx="306.9" cy="364.2" r="3.2" fill="#2563eb"/>
  <circle cx="332.6" cy="181.9" r="3.2" fill="#2563eb"/>
  <circle cx="358.2" cy="360.0" r="3.2" fill="#2563eb"/>
  <circle cx="383.9" cy="101.9" r="3.2" fill="#2563eb"/>
  <circle cx="409.5" cy="172.4" r="3.2" fill="#2563eb"/>
  <circle cx="435.2" cy="356.3" r="3.2" fill="#2563eb"/>
  <circle cx="460.8" cy="170.4" r="3.2" fill="#2563eb"/>
  <circle cx="486.5" cy="362.0" r="3.2" fill="#2563eb"/>
  <circle cx="512.1" cy="186.2" r="3.2" fill="#2563eb"/>
  <circle cx="537.8" cy="160.6" r="3.2" fill="#2563eb"/>
  <circle cx="563.4" cy="351.6" r="3.2" fill="#2563eb"/>
  <circle cx="589.1" cy="155.6" r="3.2" fill="#2563eb"/>
  <circle cx="614.8" cy="353.0" r="3.2" fill="#2563eb"/>
  <circle cx="640.4" cy="347.7" r="3.2" fill="#2563eb"/>
  <circle cx="666.1" cy="78.0" r="3.2" fill="#2563eb"/>
  <circle cx="691.7" cy="352.2" r="3.2" fill="#2563eb"/>
  <circle cx="717.4" cy="347.9" r="3.2" fill="#2563eb"/>
  <circle cx="743.0" cy="143.4" r="3.2" fill="#2563eb"/>
  <circle cx="768.7" cy="351.0" r="3.2" fill="#2563eb"/>
  <circle cx="794.3" cy="350.7" r="3.2" fill="#2563eb"/>
  <circle cx="820.0" cy="160.9" r="3.2" fill="#2563eb"/>
  <rect x="846" y="68" width="14" height="14" fill="#2563eb"/>
  <text x="868.0" y="80.0" font-size="12" font-weight="600" text-anchor="start" fill="#1f2937">총 발주금액</text>
</svg>
