<svg xmlns="http://www.w3.org/2000/svg" width="980" height="520" viewBox="0 0 980 520">
  <rect width="100%" height="100%" fill="#ffffff"/>
  <text x="28.0" y="38.0" font-size="22" font-weight="700" text-anchor="start" fill="#1f2937">월별 유지보수 비용 추이</text>
  <rect x="76" y="78" width="744" height="366" fill="#f8fafc"/>
  <line x1="76" y1="444" x2="820" y2="444" stroke="#9ca3af"/>
  <line x1="76" y1="78" x2="76" y2="444" stroke="#9ca3af"/>
  <line x1="76" y1="444.0" x2="820" y2="444.0" stroke="#e5e7eb"/>
  <text x="66.0" y="448.0" font-size="11" font-weight="400" text-anchor="end" fill="#1f2937">0</text>
  <line x1="76" y1="352.5" x2="820" y2="352.5" stroke="#e5e7eb"/>
  <text x="66.0" y="356.5" font-size="11" font-weight="400" text-anchor="end" fill="#1f2937">80만</text>
  <line x1="76" y1="261.0" x2="820" y2="261.0" stroke="#e5e7eb"/>
  <text x="66.0" y="265.0" font-size="11" font-weight="400" text-anchor="end" fill="#1f2937">159만</text>
  <line x1="76" y1="169.5" x2="820" y2="169.5" stroke="#e5e7eb"/>
  <text x="66.0" y="173.5" font-size="11" font-weight="400" text-anchor="end" fill="#1f2937">239만</text>
  <line x1="76" y1="78.0" x2="820" y2="78.0" stroke="#e5e7eb"/>
  <text x="66.0" y="82.0" font-size="11" font-weight="400" text-anchor="end" fill="#1f2937">318만</text>
  <text x="76.0" y="486.0" font-size="11" font-weight="400" text-anchor="middle" fill="#1f2937">2022-01</text>
  <text x="161.0" y="486.0" font-size="11" font-weight="400" text-anchor="middle" fill="#1f2937">2022-05</text>
  <text x="246.1" y="486.0" font-size="11" font-weight="400" text-anchor="middle" fill="#1f2937">2022-09</text>
  <text x="331.1" y="486.0" font-size="11" font-weight="400" text-anchor="middle" fill="#1f2937">2023-01</text>
  <text x="416.1" y="486.0" font-size="11" font-weight="400" text-anchor="middle" fill="#1f2937">2023-05</text>
  <text x="501.1" y="486.0" font-size="11" font-weight="400" text-anchor="middle" fill="#1f2937">2023-09</text>
  <text x="586.2" y="486.0" font-size="11" font-weight="400" text-anchor="middle" fill="#1f2937">2024-01</text>
  <text x="671.2" y="486.0" font-size="11" font-weight="400" text-anchor="middle" fill="#1f2937">2024-05</text>
  <text x="756.2" y="486.0" font-size="11" font-weight="400" text-anchor="middle" fill="#1f2937">2024-09</text>
  <polyline points="76.0,252.1 97.3,317.6 118.5,256.3 139.8,304.4 161.0,288.6 182.3,241.2 203.5,224.9 224.8,217.3 246.1,244.4 267.3,273.6 288.6,242.3 309.8,294.6 331.1,224.5 352.3,259.8 373.6,277.1 394.9,240.6 416.1,256.9 437.4,237.2 458.6,188.9 479.9,109.0 501.1,254.4 522.4,174.0 543.7,321.6 564.9,223.4 586.2,135.5 607.4,264.2 628.7,256.1 649.9,194.6 671.2,194.1 692.5,134.9 713.7,78.0 735.0,122.8 756.2,233.1 777.5,228.5 798.7,240.6 820.0,136.0" fill="none" stroke="#2563eb" stroke-width="3"/>
  <circle cx="76.0" cy="252.1" r="3.2" fill="#2563eb"/>
  <circle cx="97.3" cy="317.6" r="3.2" fill="#2563eb"/>
  <circle cx="118.5" cy="256.3" r="3.2" fill="#2563eb"/>
  <circle cx="139.8" cy="304.4" r="3.2" fill="#2563eb"/>
  <circle cx="161.0" cy="288.6" r="3.2" fill="#2563eb"/>
  <circle cx="182.3" cy="241.2" r="3.2" fill="#2563eb"/>
  <circle cx="203.5" cy="224.9" r="3.2" fill="#2563eb"/>
  <circle cx="224.8" cy="217.3" r="3.2" fill="#2563eb"/>
  <circle cx="246.1" cy="244.4" r="3.2" fill="#2563eb"/>
  <circle cx="267.3" cy="273.6" r="3.2" fill="#2563eb"/>
  <circle cx="288.6" cy="242.3" r="3.2" fill="#2563eb"/>
  <circle cx="309.8" cy="294.6" r="3.2" fill="#2563eb"/>
  <circle cx="331.1" cy="224.5" r="3.2" fill="#2563eb"/>
  <circle cx="352.3" cy="259.8" r="3.2" fill="#2563eb"/>
  <circle cx="373.6" cy="277.1" r="3.2" fill="#2563eb"/>
  <circle cx="394.9" cy="240.6" r="3.2" fill="#2563eb"/>
  <circle cx="416.1" cy="256.9" r="3.2" fill="#2563eb"/>
  <circle cx="437.4" cy="237.2" r="3.2" fill="#2563eb"/>
  <circle cx="458.6" cy="188.9" r="3.2" fill="#2563eb"/>
  <circle cx="479.9" cy="109.0" r="3.2" fill="#2563eb"/>
  <circle cx="501.1" cy="254.4" r="3.2" fill="#2563eb"/>
  <circle cx="522.4" cy="174.0" r="3.2" fill="#2563eb"/>
  <circle cx="543.7" cy="321.6" r="3.2" fill="#2563eb"/>
  <circle cx="564.9" cy="223.4" r="3.2" fill="#2563eb"/>
  <circle cx="586.2" cy="135.5" r="3.2" fill="#2563eb"/>
  <circle cx="607.4" cy="264.2" r="3.2" fill="#2563eb"/>
  <circle cx="628.7" cy="256.1" r="3.2" fill="#2563eb"/>
  <circle cx="649.9" cy="194.6" r="3.2" fill="#2563eb"/>
  <circle cx="671.2" cy="194.1" r="3.2" fill="#2563eb"/>
  <circle cx="692.5" cy="134.9" r="3.2" fill="#2563eb"/>
  <circle cx="713.7" cy="78.0" r="3.2" fill="#2563eb"/>
  <circle cx="735.0" cy="122.8" r="3.2" fill="#2563eb"/>
  <circle cx="756.2" cy="233.1" r="3.2" fill="#2563eb"/>
  <circle cx="777.5" cy="228.5" r="3.2" fill="#2563eb"/>
  <circle cx="798.7" cy="240.6" r="3.2" fill="#2563eb"/>
  <circle cx="820.0" cy="136.0" r="3.2" fill="#2563eb"/>
  <rect x="846" y="68" width="14" height="14" fill="#2563eb"/>
  <text x="868.0" y="80.0" font-size="12" font-weight="600" text-anchor="start" fill="#1f2937">총 비용</text>
</svg>
