<svg xmlns="http://www.w3.org/2000/svg" width="980" height="540" viewBox="0 0 980 540">
  <rect width="100%" height="100%" fill="#ffffff"/>
  <text x="28.0" y="38.0" font-size="22" font-weight="700" text-anchor="start" fill="#1f2937">이상유형별 유지보수 비용 Pareto</text>
  <rect x="86" y="80" width="804" height="356" fill="#f8fafc"/>
  <line x1="86" y1="436" x2="890" y2="436" stroke="#9ca3af"/>
  <line x1="86" y1="80" x2="86" y2="436" stroke="#9ca3af"/>
  <rect x="101.2" y="80.0" width="59.0" height="356.0" rx="4" fill="#2563eb"/>
  <text x="130.7" y="464.0" font-size="10" font-weight="400" text-anchor="middle" fill="#1f2937">베어링마모</text>
  <text x="130.7" y="72.0" font-size="10" font-weight="400" text-anchor="middle" fill="#1f2937">2106만</text>
  <rect x="190.5" y="187.4" width="59.0" height="248.6" rx="4" fill="#2563eb"/>
  <text x="220.0" y="464.0" font-size="10" font-weight="400" text-anchor="middle" fill="#1f2937">모터과열</text>
  <text x="220.0" y="179.4" font-size="10" font-weight="400" text-anchor="middle" fill="#1f2937">1470만</text>
  <rect x="279.9" y="253.9" width="59.0" height="182.1" rx="4" fill="#2563eb"/>
  <text x="309.3" y="464.0" font-size="10" font-weight="400" text-anchor="middle" fill="#1f2937">냉각계통이상</text>
  <text x="309.3" y="245.9" font-size="10" font-weight="400" text-anchor="middle" fill="#1f2937">1077만</text>
  <rect x="369.2" y="340.0" width="59.0" height="96.0" rx="4" fill="#2563eb"/>
  <text x="398.7" y="464.0" font-size="10" font-weight="400" text-anchor="middle" fill="#1f2937">진동이상</text>
  <text x="398.7" y="332.0" font-size="10" font-weight="400" text-anchor="middle" fill="#1f2937">568만</text>
  <rect x="458.5" y="353.7" width="59.0" height="82.3" rx="4" fill="#2563eb"/>
  <text x="488.0" y="464.0" font-size="10" font-weight="400" text-anchor="middle" fill="#1f2937">전원불안정</text>
  <text x="488.0" y="345.7" font-size="10" font-weight="400" text-anchor="middle" fill="#1f2937">487만</text>
  <rect x="547.9" y="369.6" width="59.0" height="66.4" rx="4" fill="#2563eb"/>
  <text x="577.3" y="464.0" font-size="10" font-weight="400" text-anchor="middle" fill="#1f2937">소음증가</text>
  <text x="577.3" y="361.6" font-size="10" font-weight="400" text-anchor="middle" fill="#1f2937">393만</text>
  <rect x="637.2" y="373.3" width="59.0" height="62.7" rx="4" fill="#2563eb"/>
  <text x="666.7" y="464.0" font-size="10" font-weight="400" text-anchor="middle" fill="#1f2937">유압계통이상</text>
  <text x="666.7" y="365.3" font-size="10" font-weight="400" text-anchor="middle" fill="#1f2937">371만</text>
  <rect x="726.5" y="384.8" width="59.0" height="51.2" rx="4" fill="#2563eb"/>
  <text x="756.0" y="464.0" font-size="10" font-weight="400" text-anchor="middle" fill="#1f2937">센서오류</text>
  <text x="756.0" y="376.8" font-size="10" font-weight="400" text-anchor="middle" fill="#1f2937">303만</text>
  <rect x="815.9" y="427.8" width="59.0" height="8.2" rx="4" fill="#2563eb"/>
  <text x="845.3" y="464.0" font-size="10" font-weight="400" text-anchor="middle" fill="#1f2937">윤활부족</text>
  <text x="845.3" y="419.8" font-size="10" font-weight="400" text-anchor="middle" fill="#1f2937">48만</text>
  <polyline points="130.7,326.1 220.0,249.4 309.3,193.2 398.7,163.6 488.0,138.2 577.3,117.7 666.7,98.3 756.0,82.5 845.3,80.0" fill="none" stroke="#dc2626" stroke-width="3"/>
  <circle cx="130.7" cy="326.1" r="4" fill="#dc2626"/>
  <circle cx="220.0" cy="249.4" r="4" fill="#dc2626"/>
  <circle cx="309.3" cy="193.2" r="4" fill="#dc2626"/>
  <circle cx="398.7" cy="163.6" r="4" fill="#dc2626"/>
  <circle cx="488.0" cy="138.2" r="4" fill="#dc2626"/>
  <circle cx="577.3" cy="117.7" r="4" fill="#dc2626"/>
  <circle cx="666.7" cy="98.3" r="4" fill="#dc2626"/>
  <circle cx="756.0" cy="82.5" r="4" fill="#dc2626"/>
  <circle cx="845.3" cy="80.0" r="4" fill="#dc2626"/>
  <text x="942.0" y="84.0" font-size="12" font-weight="600" text-anchor="end" fill="#1f2937">누적비율</text>
  <text x="74.0" y="84.0" font-size="12" font-weight="600" text-anchor="end" fill="#1f2937">총비용</text>
</svg>
