<svg xmlns="http://www.w3.org/2000/svg" width="960" height="520" viewBox="0 0 960 520">
  <rect width="100%" height="100%" fill="#ffffff"/>
  <text x="28.0" y="38.0" font-size="22" font-weight="700" text-anchor="start" fill="#1f2937">수리시간과 유지보수 비용 관계</text>
  <rect x="80" y="76" width="808" height="372" fill="#f8fafc"/>
  <line x1="80" y1="448" x2="888" y2="448" stroke="#9ca3af"/>
  <line x1="80" y1="76" x2="80" y2="448" stroke="#9ca3af"/>
  <text x="480.0" y="496.0" font-size="13" font-weight="400" text-anchor="middle" fill="#1f2937">수리시간(시간)</text>
  <text x="24.0" y="82.0" font-size="13" font-weight="600" text-anchor="start" fill="#1f2937">비용(원)</text>
  <line x1="80.0" y1="76" x2="80.0" y2="448" stroke="#e5e7eb"/>
  <line x1="80" y1="448.0" x2="888" y2="448.0" stroke="#e5e7eb"/>
  <text x="80.0" y="472.0" font-size="11" font-weight="400" text-anchor="middle" fill="#1f2937">0.0</text>
  <text x="70.0" y="452.0" font-size="11" font-weight="400" text-anchor="end" fill="#1f2937">0</text>
  <line x1="282.0" y1="76" x2="282.0" y2="448" stroke="#e5e7eb"/>
  <line x1="80" y1="355.0" x2="888" y2="355.0" stroke="#e5e7eb"/>
  <text x="282.0" y="472.0" font-size="11" font-weight="400" text-anchor="middle" fill="#1f2937">1.9</text>
  <text x="70.0" y="359.0" font-size="11" font-weight="400" text-anchor="end" fill="#1f2937">22만</text>
  <line x1="484.0" y1="76" x2="484.0" y2="448" stroke="#e5e7eb"/>
  <line x1="80" y1="262.0" x2="888" y2="262.0" stroke="#e5e7eb"/>
  <text x="484.0" y="472.0" font-size="11" font-weight="400" text-anchor="middle" fill="#1f2937">3.8</text>
  <text x="70.0" y="266.0" font-size="11" font-weight="400" text-anchor="end" fill="#1f2937">45만</text>
  <line x1="686.0" y1="76" x2="686.0" y2="448" stroke="#e5e7eb"/>
  <line x1="80" y1="169.0" x2="888" y2="169.0" stroke="#e5e7eb"/>
  <text x="686.0" y="472.0" font-size="11" font-weight="400" text-anchor="middle" fill="#1f2937">5.6</text>
  <text x="70.0" y="173.0" font-size="11" font-weight="400" text-anchor="end" fill="#1f2937">68만</text>
  <line x1="888.0" y1="76" x2="888.0" y2="448" stroke="#e5e7eb"/>
  <line x1="80" y1="76.0" x2="888" y2="76.0" stroke="#e5e7eb"/>
  <text x="888.0" y="472.0" font-size="11" font-weight="400" text-anchor="middle" fill="#1f2937">7.5</text>
  <text x="70.0" y="80.0" font-size="11" font-weight="400" text-anchor="end" fill="#1f2937">90만</text>
  <circle cx="241.6" cy="414.9" r="4.2" fill="#2563eb" fill-opacity="0.72"/>
  <circle cx="510.9" cy="262.0" r="4.2" fill="#dc2626" fill-opacity="0.72"/>
  <circle cx="403.2" cy="357.1" r="4.2" fill="#2563eb" fill-opacity="0.72"/>
  <circle cx="672.5" cy="166.9" r="4.2" fill="#dc2626" fill-opacity="0.72"/>
  <circle cx="295.5" cy="386.0" r="4.2" fill="#2563eb" fill-opacity="0.72"/>
  <circle cx="187.7" cy="410.8" r="4.2" fill="#2563eb" fill-opacity="0.72"/>
  <circle cx="133.9" cy="423.2" r="4.2" fill="#2563eb" fill-opacity="0.72"/>
  <circle cx="726.4" cy="233.1" r="4.2" fill="#dc2626" fill-opacity="0.72"/>
  <circle cx="457.1" cy="332.3" r="4.2" fill="#2563eb" fill-opacity="0.72"/>
  <circle cx="241.6" cy="402.5" r="4.2" fill="#2563eb" fill-opacity="0.72"/>
  <circle cx="295.5" cy="394.3" r="4.2" fill="#2563eb" fill-opacity="0.72"/>
  <circle cx="564.8" cy="286.8" r="4.2" fill="#dc2626" fill-opacity="0.72"/>
  <circle cx="241.6" cy="390.1" r="4.2" fill="#2563eb" fill-opacity="0.72"/>
  <circle cx="349.3" cy="365.3" r="4.2" fill="#2563eb" fill-opacity="0.72"/>
  <circle cx="403.2" cy="344.7" r="4.2" fill="#2563eb" fill-opacity="0.72"/>
  <circle cx="510.9" cy="257.9" r="4.2" fill="#dc2626" fill-opacity="0.72"/>
  <circle cx="618.7" cy="237.2" r="4.2" fill="#dc2626" fill-opacity="0.72"/>
  <circle cx="187.7" cy="408.7" r="4.2" fill="#2563eb" fill-opacity="0.72"/>
  <circle cx="295.5" cy="373.6" r="4.2" fill="#2563eb" fill-opacity="0.72"/>
  <circle cx="133.9" cy="425.3" r="4.2" fill="#2563eb" fill-opacity="0.72"/>
  <circle cx="403.2" cy="340.5" r="4.2" fill="#2563eb" fill-opacity="0.72"/>
  <circle cx="349.3" cy="359.1" r="4.2" fill="#2563eb" fill-opacity="0.72"/>
  <circle cx="672.5" cy="204.1" r="4.2" fill="#dc2626" fill-opacity="0.72"/>
  <circle cx="241.6" cy="398.4" r="4.2" fill="#2563eb" fill-opacity="0.72"/>
  <circle cx="564.8" cy="249.6" r="4.2" fill="#dc2626" fill-opacity="0.72"/>
  <circle cx="187.7" cy="412.9" r="4.2" fill="#2563eb" fill-opacity="0.72"/>
  <circle cx="457.1" cy="315.7" r="4.2" fill="#dc2626" fill-opacity="0.72"/>
  <circle cx="295.5" cy="369.5" r="4.2" fill="#2563eb" fill-opacity="0.72"/>
  <circle cx="510.9" cy="274.4" r="4.2" fill="#dc2626" fill-opacity="0.72"/>
  <circle cx="618.7" cy="220.7" r="4.2" fill="#dc2626" fill-opacity="0.72"/>
  <circle cx="457.1" cy="328.1" r="4.2" fill="#2563eb" fill-opacity="0.72"/>
  <circle cx="403.2" cy="307.5" r="4.2" fill="#dc2626" fill-opacity="0.72"/>
  <circle cx="510.9" cy="253.7" r="4.2" fill="#dc2626" fill-opacity="0.72"/>
  <circle cx="564.8" cy="241.3" r="4.2" fill="#dc2626" fill-opacity="0.72"/>
  <circle cx="403.2" cy="336.4" r="4.2" fill="#2563eb" fill-opacity="0.72"/>
  <circle cx="295.5" cy="379.8" r="4.2" fill="#2563eb" fill-opacity="0.72"/>
  <circle cx="349.3" cy="357.1" r="4.2" fill="#2563eb" fill-opacity="0.72"/>
  <circle cx="133.9" cy="424.0" r="4.2" fill="#2563eb" fill-opacity="0.72"/>
  <circle cx="618.7" cy="228.9" r="4.2" fill="#dc2626" fill-opacity="0.72"/>
  <circle cx="241.6" cy="394.3" r="4.2" fill="#2563eb" fill-opacity="0.72"/>
  <circle cx="187.7" cy="410.0" r="4.2" fill="#2563eb" fill-opacity="0.72"/>
  <circle cx="349.3" cy="367.4" r="4.2" fill="#2563eb" fill-opacity="0.72"/>
  <circle cx="510.9" cy="270.3" r="4.2" fill="#dc2626" fill-opacity="0.72"/>
  <circle cx="295.5" cy="375.7" r="4.2" fill="#2563eb" fill-opacity="0.72"/>
  <circle cx="403.2" cy="346.7" r="4.2" fill="#2563eb" fill-opacity="0.72"/>
  <circle cx="403.2" cy="342.6" r="4.2" fill="#2563eb" fill-opacity="0.72"/>
  <circle cx="295.5" cy="388.1" r="4.2" fill="#2563eb" fill-opacity="0.72"/>
  <circle cx="564.8" cy="249.6" r="4.2" fill="#dc2626" fill-opacity="0.72"/>
  <circle cx="241.6" cy="396.3" r="4.2" fill="#2563eb" fill-opacity="0.72"/>
  <circle cx="457.1" cy="286.8" r="4.2" fill="#dc2626" fill-opacity="0.72"/>
  <circle cx="187.7" cy="414.1" r="4.2" fill="#2563eb" fill-opacity="0.72"/>
  <circle cx="349.3" cy="365.3" r="4.2" fill="#2563eb" fill-opacity="0.72"/>
  <circle cx="295.5" cy="379.8" r="4.2" fill="#2563eb" fill-opacity="0.72"/>
  <circle cx="403.2" cy="348.8" r="4.2" fill="#2563eb" fill-opacity="0.72"/>
  <circle cx="672.5" cy="191.7" r="4.2" fill="#dc2626" fill-opacity="0.72"/>
  <circle cx="349.3" cy="361.2" r="4.2" fill="#2563eb" fill-opacity="0.72"/>
  <circle cx="457.1" cy="324.0" r="4.2" fill="#2563eb" fill-opacity="0.72"/>
  <circle cx="510.9" cy="274.4" r="4.2" fill="#dc2626" fill-opacity="0.72"/>
  <circle cx="618.7" cy="204.1" r="4.2" fill="#dc2626" fill-opacity="0.72"/>
  <circle cx="241.6" cy="390.1" r="4.2" fill="#2563eb" fill-opacity="0.72"/>
  <circle cx="726.4" cy="175.2" r="4.2" fill="#dc2626" fill-opacity="0.72"/>
  <circle cx="241.6" cy="400.5" r="4.2" fill="#2563eb" fill-opacity="0.72"/>
  <circle cx="403.2" cy="338.5" r="4.2" fill="#2563eb" fill-opacity="0.72"/>
  <circle cx="241.6" cy="395.1" r="4.2" fill="#2563eb" fill-opacity="0.72"/>
  <circle cx="618.7" cy="216.5" r="4.2" fill="#dc2626" fill-opacity="0.72"/>
  <circle cx="349.3" cy="357.1" r="4.2" fill="#2563eb" fill-opacity="0.72"/>
  <circle cx="133.9" cy="422.4" r="4.2" fill="#2563eb" fill-opacity="0.72"/>
  <circle cx="295.5" cy="375.7" r="4.2" fill="#2563eb" fill-opacity="0.72"/>
  <circle cx="403.2" cy="336.4" r="4.2" fill="#2563eb" fill-opacity="0.72"/>
  <circle cx="672.5" cy="195.9" r="4.2" fill="#dc2626" fill-opacity="0.72"/>
  <circle cx="295.5" cy="377.7" r="4.2" fill="#2563eb" fill-opacity="0.72"/>
  <circle cx="187.7" cy="408.7" r="4.2" fill="#2563eb" fill-opacity="0.72"/>
  <circle cx="457.1" cy="319.9" r="4.2" fill="#2563eb" fill-opacity="0.72"/>
  <circle cx="295.5" cy="371.5" r="4.2" fill="#2563eb" fill-opacity="0.72"/>
  <circle cx="457.1" cy="290.9" r="4.2" fill="#dc2626" fill-opacity="0.72"/>
  <circle cx="295.5" cy="367.4" r="4.2" fill="#2563eb" fill-opacity="0.72"/>
  <circle cx="241.6" cy="394.3" r="4.2" fill="#2563eb" fill-opacity="0.72"/>
  <circle cx="564.8" cy="237.2" r="4.2" fill="#dc2626" fill-opacity="0.72"/>
  <circle cx="618.7" cy="208.3" r="4.2" fill="#dc2626" fill-opacity="0.72"/>
  <circle cx="241.6" cy="400.5" r="4.2" fill="#2563eb" fill-opacity="0.72"/>
  <circle cx="510.9" cy="257.9" r="4.2" fill="#dc2626" fill-opacity="0.72"/>
  <circle cx="564.8" cy="228.9" r="4.2" fill="#dc2626" fill-opacity="0.72"/>
  <circle cx="618.7" cy="212.4" r="4.2" fill="#dc2626" fill-opacity="0.72"/>
  <circle cx="349.3" cy="359.1" r="4.2" fill="#2563eb" fill-opacity="0.72"/>
  <circle cx="510.9" cy="253.7" r="4.2" fill="#dc2626" fill-opacity="0.72"/>
  <circle cx="672.5" cy="191.7" r="4.2" fill="#dc2626" fill-opacity="0.72"/>
  <circle cx="457.1" cy="317.8" r="4.2" fill="#2563eb" fill-opacity="0.72"/>
  <circle cx="618.7" cy="195.9" r="4.2" fill="#dc2626" fill-opacity="0.72"/>
  <circle cx="564.8" cy="237.2" r="4.2" fill="#dc2626" fill-opacity="0.72"/>
  <circle cx="295.5" cy="375.7" r="4.2" fill="#2563eb" fill-opacity="0.72"/>
  <circle cx="726.4" cy="166.9" r="4.2" fill="#dc2626" fill-opacity="0.72"/>
  <circle cx="349.3" cy="355.0" r="4.2" fill="#2563eb" fill-opacity="0.72"/>
  <circle cx="295.5" cy="381.9" r="4.2" fill="#2563eb" fill-opacity="0.72"/>
  <circle cx="241.6" cy="388.1" r="4.2" fill="#2563eb" fill-opacity="0.72"/>
  <circle cx="403.2" cy="338.5" r="4.2" fill="#2563eb" fill-opacity="0.72"/>
  <circle cx="564.8" cy="245.5" r="4.2" fill="#dc2626" fill-opacity="0.72"/>
  <circle cx="403.2" cy="334.3" r="4.2" fill="#2563eb" fill-opacity="0.72"/>
  <circle cx="349.3" cy="355.0" r="4.2" fill="#2563eb" fill-opacity="0.72"/>
  <circle cx="618.7" cy="212.4" r="4.2" fill="#dc2626" fill-opacity="0.72"/>
  <circle cx="295.5" cy="371.5" r="4.2" fill="#2563eb" fill-opacity="0.72"/>
  <circle cx="457.1" cy="313.7" r="4.2" fill="#2563eb" fill-opacity="0.72"/>
  <circle cx="349.3" cy="367.4" r="4.2" fill="#2563eb" fill-opacity="0.72"/>
  <circle cx="187.7" cy="410.8" r="4.2" fill="#2563eb" fill-opacity="0.72"/>
  <circle cx="349.3" cy="359.1" r="4.2" fill="#2563eb" fill-opacity="0.72"/>
  <circle cx="403.2" cy="332.3" r="4.2" fill="#dc2626" fill-opacity="0.72"/>
  <circle cx="726.4" cy="162.8" r="4.2" fill="#dc2626" fill-opacity="0.72"/>
  <circle cx="403.2" cy="299.2" r="4.2" fill="#dc2626" fill-opacity="0.72"/>
  <circle cx="403.2" cy="334.3" r="4.2" fill="#2563eb" fill-opacity="0.72"/>
  <circle cx="672.5" cy="175.2" r="4.2" fill="#dc2626" fill-opacity="0.72"/>
  <circle cx="295.5" cy="371.5" r="4.2" fill="#2563eb" fill-opacity="0.72"/>
  <circle cx="672.5" cy="166.9" r="4.2" fill="#dc2626" fill-opacity="0.72"/>
  <circle cx="457.1" cy="313.7" r="4.2" fill="#2563eb" fill-opacity="0.72"/>
  <circle cx="780.3" cy="138.0" r="4.2" fill="#dc2626" fill-opacity="0.72"/>
  <circle cx="295.5" cy="375.7" r="4.2" fill="#2563eb" fill-opacity="0.72"/>
  <circle cx="241.6" cy="390.1" r="4.2" fill="#2563eb" fill-opacity="0.72"/>
  <circle cx="241.6" cy="396.3" r="4.2" fill="#2563eb" fill-opacity="0.72"/>
  <circle cx="457.1" cy="315.7" r="4.2" fill="#2563eb" fill-opacity="0.72"/>
  <circle cx="403.2" cy="336.4" r="4.2" fill="#2563eb" fill-opacity="0.72"/>
  <circle cx="133.9" cy="421.1" r="4.2" fill="#2563eb" fill-opacity="0.72"/>
  <circle cx="618.7" cy="200.0" r="4.2" fill="#dc2626" fill-opacity="0.72"/>
  <circle cx="510.9" cy="253.7" r="4.2" fill="#dc2626" fill-opacity="0.72"/>
  <circle cx="457.1" cy="282.7" r="4.2" fill="#dc2626" fill-opacity="0.72"/>
  <circle cx="241.6" cy="383.9" r="4.2" fill="#2563eb" fill-opacity="0.72"/>
  <circle cx="349.3" cy="357.1" r="4.2" fill="#2563eb" fill-opacity="0.72"/>
  <circle cx="349.3" cy="352.9" r="4.2" fill="#2563eb" fill-opacity="0.72"/>
  <circle cx="510.9" cy="253.7" r="4.2" fill="#dc2626" fill-opacity="0.72"/>
  <circle cx="187.7" cy="406.7" r="4.2" fill="#2563eb" fill-opacity="0.72"/>
  <circle cx="726.4" cy="150.4" r="4.2" fill="#dc2626" fill-opacity="0.72"/>
  <circle cx="349.3" cy="350.9" r="4.2" fill="#2563eb" fill-opacity="0.72"/>
  <circle cx="672.5" cy="175.2" r="4.2" fill="#dc2626" fill-opacity="0.72"/>
  <circle cx="618.7" cy="204.1" r="4.2" fill="#dc2626" fill-opacity="0.72"/>
  <circle cx="349.3" cy="350.9" r="4.2" fill="#2563eb" fill-opacity="0.72"/>
  <circle cx="564.8" cy="228.9" r="4.2" fill="#dc2626" fill-opacity="0.72"/>
  <circle cx="618.7" cy="195.9" r="4.2" fill="#dc2626" fill-opacity="0.72"/>
  <circle cx="672.5" cy="183.5" r="4.2" fill="#dc2626" fill-opacity="0.72"/>
  <circle cx="241.6" cy="394.3" r="4.2" fill="#2563eb" fill-opacity="0.72"/>
  <circle cx="564.8" cy="224.8" r="4.2" fill="#dc2626" fill-opacity="0.72"/>
  <circle cx="726.4" cy="150.4" r="4.2" fill="#dc2626" fill-opacity="0.72"/>
  <circle cx="510.9" cy="245.5" r="4.2" fill="#dc2626" fill-opacity="0.72"/>
  <circle cx="672.5" cy="166.9" r="4.2" fill="#dc2626" fill-opacity="0.72"/>
  <circle cx="672.5" cy="175.2" r="4.2" fill="#dc2626" fill-opacity="0.72"/>
  <circle cx="510.9" cy="249.6" r="4.2" fill="#dc2626" fill-opacity="0.72"/>
  <circle cx="672.5" cy="175.2" r="4.2" fill="#dc2626" fill-opacity="0.72"/>
  <circle cx="457.1" cy="317.8" r="4.2" fill="#2563eb" fill-opacity="0.72"/>
  <circle cx="295.5" cy="371.5" r="4.2" fill="#2563eb" fill-opacity="0.72"/>
  <circle cx="457.1" cy="307.5" r="4.2" fill="#2563eb" fill-opacity="0.72"/>
  <circle cx="834.1" cy="109.1" r="4.2" fill="#dc2626" fill-opacity="0.72"/>
  <circle cx="295.5" cy="371.5" r="4.2" fill="#2563eb" fill-opacity="0.72"/>
  <circle cx="241.6" cy="394.3" r="4.2" fill="#2563eb" fill-opacity="0.72"/>
  <circle cx="403.2" cy="334.3" r="4.2" fill="#2563eb" fill-opacity="0.72"/>
  <circle cx="403.2" cy="336.4" r="4.2" fill="#2563eb" fill-opacity="0.72"/>
  <circle cx="349.3" cy="350.9" r="4.2" fill="#2563eb" fill-opacity="0.72"/>
  <circle cx="349.3" cy="352.9" r="4.2" fill="#2563eb" fill-opacity="0.72"/>
  <circle cx="349.3" cy="361.2" r="4.2" fill="#2563eb" fill-opacity="0.72"/>
  <circle cx="726.4" cy="146.3" r="4.2" fill="#dc2626" fill-opacity="0.72"/>
  <circle cx="457.1" cy="319.9" r="4.2" fill="#2563eb" fill-opacity="0.72"/>
  <circle cx="510.9" cy="290.9" r="4.2" fill="#2563eb" fill-opacity="0.72"/>
  <circle cx="510.9" cy="245.5" r="4.2" fill="#dc2626" fill-opacity="0.72"/>
  <circle cx="618.7" cy="200.0" r="4.2" fill="#dc2626" fill-opacity="0.72"/>
  <circle cx="888.0" cy="76.0" r="4.2" fill="#dc2626" fill-opacity="0.72"/>
  <circle cx="349.3" cy="361.2" r="4.2" fill="#2563eb" fill-opacity="0.72"/>
  <circle cx="133.9" cy="426.5" r="4.2" fill="#2563eb" fill-opacity="0.72"/>
  <circle cx="295.5" cy="375.7" r="4.2" fill="#2563eb" fill-opacity="0.72"/>
  <circle cx="403.2" cy="340.5" r="4.2" fill="#2563eb" fill-opacity="0.72"/>
  <circle cx="187.7" cy="417.0" r="4.2" fill="#2563eb" fill-opacity="0.72"/>
  <circle cx="295.5" cy="371.5" r="4.2" fill="#2563eb" fill-opacity="0.72"/>
  <circle cx="510.9" cy="257.9" r="4.2" fill="#dc2626" fill-opacity="0.72"/>
  <circle cx="241.6" cy="392.2" r="4.2" fill="#2563eb" fill-opacity="0.72"/>
  <circle cx="349.3" cy="357.1" r="4.2" fill="#2563eb" fill-opacity="0.72"/>
  <circle cx="457.1" cy="282.7" r="4.2" fill="#dc2626" fill-opacity="0.72"/>
  <circle cx="349.3" cy="365.3" r="4.2" fill="#2563eb" fill-opacity="0.72"/>
  <circle cx="295.5" cy="369.5" r="4.2" fill="#2563eb" fill-opacity="0.72"/>
  <circle cx="403.2" cy="332.3" r="4.2" fill="#2563eb" fill-opacity="0.72"/>
  <circle cx="349.3" cy="346.7" r="4.2" fill="#2563eb" fill-opacity="0.72"/>
  <circle cx="295.5" cy="367.4" r="4.2" fill="#2563eb" fill-opacity="0.72"/>
  <circle cx="187.7" cy="411.6" r="4.2" fill="#2563eb" fill-opacity="0.72"/>
  <circle cx="295.5" cy="373.6" r="4.2" fill="#2563eb" fill-opacity="0.72"/>
  <circle cx="241.6" cy="398.4" r="4.2" fill="#2563eb" fill-opacity="0.72"/>
  <circle cx="133.9" cy="424.0" r="4.2" fill="#2563eb" fill-opacity="0.72"/>
  <circle cx="241.6" cy="396.3" r="4.2" fill="#2563eb" fill-opacity="0.72"/>
  <circle cx="403.2" cy="319.9" r="4.2" fill="#dc2626" fill-opacity="0.72"/>
  <circle cx="349.3" cy="357.1" r="4.2" fill="#2563eb" fill-opacity="0.72"/>
  <circle cx="295.5" cy="375.7" r="4.2" fill="#2563eb" fill-opacity="0.72"/>
  <circle cx="187.7" cy="411.6" r="4.2" fill="#2563eb" fill-opacity="0.72"/>
  <circle cx="295.5" cy="371.5" r="4.2" fill="#2563eb" fill-opacity="0.72"/>
  <circle cx="457.1" cy="290.9" r="4.2" fill="#dc2626" fill-opacity="0.72"/>
  <circle cx="349.3" cy="350.9" r="4.2" fill="#2563eb" fill-opacity="0.72"/>
  <circle cx="241.6" cy="388.1" r="4.2" fill="#2563eb" fill-opacity="0.72"/>
  <circle cx="241.6" cy="390.1" r="4.2" fill="#2563eb" fill-opacity="0.72"/>
  <circle cx="187.7" cy="414.1" r="4.2" fill="#2563eb" fill-opacity="0.72"/>
  <circle cx="241.6" cy="398.4" r="4.2" fill="#2563eb" fill-opacity="0.72"/>
  <circle cx="349.3" cy="361.2" r="4.2" fill="#2563eb" fill-opacity="0.72"/>
  <circle cx="403.2" cy="319.9" r="4.2" fill="#dc2626" fill-opacity="0.72"/>
  <circle cx="187.7" cy="410.8" r="4.2" fill="#2563eb" fill-opacity="0.72"/>
  <circle cx="241.6" cy="399.2" r="4.2" fill="#2563eb" fill-opacity="0.72"/>
  <circle cx="187.7" cy="407.5" r="4.2" fill="#2563eb" fill-opacity="0.72"/>
  <circle cx="187.7" cy="410.0" r="4.2" fill="#2563eb" fill-opacity="0.72"/>
  <circle cx="241.6" cy="392.2" r="4.2" fill="#2563eb" fill-opacity="0.72"/>
  <circle cx="241.6" cy="404.6" r="4.2" fill="#2563eb" fill-opacity="0.72"/>
  <circle cx="403.2" cy="319.9" r="4.2" fill="#dc2626" fill-opacity="0.72"/>
  <circle cx="295.5" cy="379.8" r="4.2" fill="#2563eb" fill-opacity="0.72"/>
  <circle cx="241.6" cy="396.3" r="4.2" fill="#2563eb" fill-opacity="0.72"/>
  <circle cx="457.1" cy="295.1" r="4.2" fill="#dc2626" fill-opacity="0.72"/>
  <circle cx="349.3" cy="363.3" r="4.2" fill="#2563eb" fill-opacity="0.72"/>
  <circle cx="295.5" cy="383.9" r="4.2" fill="#2563eb" fill-opacity="0.72"/>
  <circle cx="241.6" cy="394.3" r="4.2" fill="#2563eb" fill-opacity="0.72"/>
  <circle cx="403.2" cy="342.6" r="4.2" fill="#2563eb" fill-opacity="0.72"/>
  <circle cx="295.5" cy="375.7" r="4.2" fill="#2563eb" fill-opacity="0.72"/>
  <circle cx="510.9" cy="266.1" r="4.2" fill="#dc2626" fill-opacity="0.72"/>
  <circle cx="349.3" cy="355.0" r="4.2" fill="#2563eb" fill-opacity="0.72"/>
  <circle cx="295.5" cy="379.8" r="4.2" fill="#2563eb" fill-opacity="0.72"/>
  <circle cx="457.1" cy="290.9" r="4.2" fill="#dc2626" fill-opacity="0.72"/>
  <circle cx="403.2" cy="311.6" r="4.2" fill="#dc2626" fill-opacity="0.72"/>
  <circle cx="241.6" cy="392.2" r="4.2" fill="#2563eb" fill-opacity="0.72"/>
  <circle cx="295.5" cy="371.5" r="4.2" fill="#2563eb" fill-opacity="0.72"/>
  <circle cx="457.1" cy="278.5" r="4.2" fill="#dc2626" fill-opacity="0.72"/>
  <circle cx="187.7" cy="412.9" r="4.2" fill="#2563eb" fill-opacity="0.72"/>
  <circle cx="457.1" cy="299.2" r="4.2" fill="#dc2626" fill-opacity="0.72"/>
  <circle cx="241.6" cy="396.3" r="4.2" fill="#2563eb" fill-opacity="0.72"/>
  <circle cx="349.3" cy="359.1" r="4.2" fill="#2563eb" fill-opacity="0.72"/>
  <circle cx="187.7" cy="410.8" r="4.2" fill="#2563eb" fill-opacity="0.72"/>
  <circle cx="457.1" cy="288.9" r="4.2" fill="#dc2626" fill-opacity="0.72"/>
  <circle cx="295.5" cy="369.5" r="4.2" fill="#2563eb" fill-opacity="0.72"/>
  <circle cx="349.3" cy="363.3" r="4.2" fill="#2563eb" fill-opacity="0.72"/>
  <circle cx="403.2" cy="315.7" r="4.2" fill="#dc2626" fill-opacity="0.72"/>
  <circle cx="241.6" cy="396.3" r="4.2" fill="#2563eb" fill-opacity="0.72"/>
  <circle cx="241.6" cy="394.3" r="4.2" fill="#2563eb" fill-opacity="0.72"/>
  <circle cx="457.1" cy="293.0" r="4.2" fill="#dc2626" fill-opacity="0.72"/>
  <circle cx="349.3" cy="348.8" r="4.2" fill="#2563eb" fill-opacity="0.72"/>
  <circle cx="748" cy="86" r="5" fill="#2563eb"/>
  <text x="762.0" y="90.0" font-size="12" font-weight="400" text-anchor="start" fill="#1f2937">부품교체 없음</text>
  <circle cx="748" cy="110" r="5" fill="#dc2626"/>
  <text x="762.0" y="114.0" font-size="12" font-weight="400" text-anchor="start" fill="#1f2937">부품교체 있음</text>
</svg>
